<?xml version="1.0" standalone="no"?><!DOCTYPE svg PUBLIC "-//W3C//DTD SVG 1.1//EN" "http://www.w3.org/Graphics/SVG/1.1/DTD/svg11.dtd"><svg class="icon" width="200px" height="198.83px" viewBox="0 0 1030 1024" version="1.1" xmlns="http://www.w3.org/2000/svg"><path d="M55.296 573.44q-23.552 0-40.448-17.408t-16.896-40.96l0-77.824q0-23.552 16.896-40.448t40.448-16.896l751.616 0q-15.36 4.096-29.696 10.752t-25.6 20.992q-32.768 36.864-65.536 79.36t-62.464 82.432l-568.32 0zM183.296 314.368q-23.552 0-40.448-17.408t-16.896-40.96l0-71.68q0-23.552 16.896-40.448t40.448-16.896l779.264 0q23.552 0 40.96 16.896t17.408 40.448l0 71.68q0 23.552-17.408 40.96t-40.96 17.408l-779.264 0zM700.416 763.904l0 8.192q0 6.144 0.512 19.968t0.512 40.448l-646.144 0q-23.552 0-40.448-16.896t-16.896-41.472l0-76.8q0-23.552 16.896-40.448t40.448-16.896l517.12 0q-3.072 2.048-5.632 5.632t-4.608 5.632q-10.24 14.336-12.288 33.792t4.096 37.376 19.968 30.208 34.304 12.288l48.128 0zM1005.568 649.216l15.36 25.6q6.144 10.24 6.144 16.384t-7.68 8.704-25.088 2.56l-55.296 0q-22.528 0-33.792 11.264t-11.264 29.696l0 99.328q0 17.408-15.36 34.816t-36.864 17.408l-39.936 0q-15.36 0-27.136-11.776t-11.776-41.472q0-13.312 0.512-16.896t0.512-9.216 0.512-18.944 0.512-46.08q0-25.6-8.704-36.864t-31.232-11.264l-55.296 0q-23.552 0-29.696-9.728t10.24-30.208q15.36-20.48 34.304-47.616t38.912-56.32 38.912-56.832 36.352-49.152q7.168-8.192 18.432-12.8t23.552-5.12 22.528 2.56 15.36 10.24q12.288 21.504 28.16 47.616t33.28 52.736 34.304 52.736 31.232 48.64z" /></svg>