<?xml version="1.0" standalone="no"?><!DOCTYPE svg PUBLIC "-//W3C//DTD SVG 1.1//EN" "http://www.w3.org/Graphics/SVG/1.1/DTD/svg11.dtd"><svg class="icon" width="200px" height="200.00px" viewBox="0 0 1024 1024" version="1.1" xmlns="http://www.w3.org/2000/svg"><path d="M513 68.1C266.5 68.1 66.7 268 66.7 514.5S266.5 960.8 513 960.8 959.3 761 959.3 514.5 759.5 68.1 513 68.1z m214.1 472H538.8v27c0 16.6-13.4 30-30 30s-30-13.4-30-30v-27h-34.9c-16.6 0-30-13.4-30-30s13.4-30 30-30h34.9V283.9c0-16.6 13.4-30 30-30s30 13.4 30 30v196.2h188.3c16.6 0 30 13.4 30 30s-13.4 30-30 30z" fill="#231815" /></svg>